<svg xmlns="http://www.w3.org/2000/svg" viewBox="0 0 1200 480" width="1200" height="480" role="img" aria-label="History & Government">
  <defs>
    <linearGradient id="g" x1="0" y1="0" x2="1" y2="1">
      <stop offset="0" stop-color="#2e2a8a"/>
      <stop offset="1" stop-color="#181555"/>
    </linearGradient>
  </defs>
  <rect width="1200" height="480" fill="url(#g)"/>
  <g opacity="0.07"><path d="M980,120 L1010,250 L1110,210 L1060,320 L1170,340 L1070,400 L1130,500 L1010,460 L980,560 L950,460 L830,500 L890,400 L790,340 L900,320 L850,210 L950,250 Z" fill="#fff"/></g>
  <g transform="translate(300,240) scale(1.1)"><polygon points="0,-66 78,-26 -78,-26" fill="#fff"/><rect x="-78" y="44" width="156" height="16" rx="3" fill="#fff"/><rect x="-60" y="-22" width="16" height="62" fill="#fff"/><rect x="-26" y="-22" width="16" height="62" fill="#fff"/><rect x="10" y="-22" width="16" height="62" fill="#fff"/><rect x="44" y="-22" width="16" height="62" fill="#fff"/></g>
  <text x="560" y="250" font-family="Inter, Arial, sans-serif" font-size="56" font-weight="800" fill="#ffffff">History & Government</text>
  <text x="560" y="300" font-family="Inter, Arial, sans-serif" font-size="28" fill="#f58a1f">passpilot.ca</text>
</svg>